HIERARCHY
ROOT Hips
{
	OFFSET 0.000000 0.000000 0.000000 
	CHANNELS 6 Xposition Yposition Zposition Zrotation Yrotation Xrotation
	JOINT LeftUpLeg
	{
		OFFSET 1.363060 -1.794630 0.839290 
		CHANNELS 3 Zrotation Yrotation Xrotation
		JOINT LeftLeg
		{
			OFFSET 2.448110 -6.726130 0.000000 
			CHANNELS 3 Zrotation Yrotation Xrotation
			JOINT LeftFoot
			{
				OFFSET 2.562200 -7.039590 0.000000 
				CHANNELS 3 Zrotation Yrotation Xrotation
				JOINT LeftToeBase
				{
					OFFSET 0.157640 -0.433110 2.322550 
					CHANNELS 3 Zrotation Yrotation Xrotation
					End Site
					{
						OFFSET 0.000000 0.000000 0.000000 
					}
				}
			}
		}
	}
	JOINT RightUpLeg
	{
		OFFSET -1.305520 -1.794630 0.839290 
		CHANNELS 3 Zrotation Yrotation Xrotation
		JOINT RightLeg
		{
			OFFSET -2.542530 -6.985550 0.000000 
			CHANNELS 3 Zrotation Yrotation Xrotation
			JOINT RightFoot
			{
				OFFSET -2.568260 -7.056230 0.000000 
				CHANNELS 3 Zrotation Yrotation Xrotation
				JOINT RightToeBase
				{
					OFFSET -0.164730 -0.452590 2.363150 
					CHANNELS 3 Zrotation Yrotation Xrotation
					End Site
					{
						OFFSET 0.000000 0.000000 0.000000 
					}
				}
			}
		}
	}
	JOINT Spine
	{
		OFFSET 0.028270 2.035590 -0.193380 
		CHANNELS 3 Zrotation Yrotation Xrotation
		JOINT Spine1
		{
			OFFSET 0.056720 2.048850 -0.042750 
			CHANNELS 3 Zrotation Yrotation Xrotation
			JOINT Neck1
			{
				OFFSET -0.054170 1.746240 0.172020 
				CHANNELS 3 Zrotation Yrotation Xrotation
				JOINT Head
				{
					OFFSET 0.104070 1.761360 -0.123970 
					CHANNELS 3 Zrotation Yrotation Xrotation
					End Site
					{
						OFFSET 0.000000 0.000000 0.000000 
					}
				}
			}
			JOINT LeftArm
			{
				OFFSET 3.362410 1.200890 -0.311210 
				CHANNELS 3 Zrotation Yrotation Xrotation
				JOINT LeftForeArm
				{
					OFFSET 4.983000 -0.000000 -0.000000 
					CHANNELS 3 Zrotation Yrotation Xrotation
					JOINT LeftHand
					{
						OFFSET 3.483560 -0.000000 -0.000000 
						CHANNELS 3 Zrotation Yrotation Xrotation
						JOINT LeftHandIndex1
						{
							OFFSET 0.715260 -0.000000 -0.000000 
							CHANNELS 3 Zrotation Yrotation Xrotation
							End Site
							{
								OFFSET 0.000000 0.000000 0.000000 
							}
						}
					}
				}
			}
			JOINT RightArm
			{
				OFFSET -3.136600 1.374050 -0.404650 
				CHANNELS 3 Zrotation Yrotation Xrotation
				JOINT RightForeArm
				{
					OFFSET -5.241900 -0.000000 -0.000000 
					CHANNELS 3 Zrotation Yrotation Xrotation
					JOINT RightHand
					{
						OFFSET -3.444170 -0.000000 -0.000000 
						CHANNELS 3 Zrotation Yrotation Xrotation
						JOINT RightHandIndex1
						{
							OFFSET -0.622530 -0.000000 -0.000000 
							CHANNELS 3 Zrotation Yrotation Xrotation
							End Site
							{
								OFFSET 0.000000 0.000000 0.000000 
							}
						}
					}
				}
			}
		}
	}
}
MOTION
Frames: 10
Frame Time: 0.041667
1.022841 18.014708 0.949675 -179.746178 -3.426180 179.838698 -18.089723 -12.420386 7.689176 -1.445074 -0.145059 1.824282 -0.328720 2.608100 0.893768 0.022800 0.974600 2.679000 20.748505 1.081975 -2.385145 -1.138918 -6.520449 19.831625 0.709380 -6.229659 -7.579429 -0.039800 1.287300 -3.539700 1.854691 0.477866 2.074929 -0.422596 0.118954 -4.248379 9.330934 -8.599076 19.986143 4.780800 -4.394100 14.076400 -85.447729 5.689190 23.903786 16.377635 -22.949797 -3.785825 -1.046759 -1.899707 4.724560 -7.125000 0.000000 0.000000 85.573274 -2.777109 19.586643 -18.235631 26.328893 -4.325562 0.272562 -0.080508 6.233395 7.125000 0.000000 0.000000 
1.014227 18.013718 0.945417 -179.745822 -3.381222 179.896273 -18.129600 -12.558039 7.707726 -1.450372 -0.144929 1.819204 -0.342217 2.783473 0.828721 0.027100 1.063600 2.923900 20.702199 1.097302 -2.440098 -1.138783 -6.518247 19.823799 0.697123 -6.152793 -7.551069 -0.035600 1.217900 -3.348500 1.860424 0.539594 2.042266 -0.422410 0.149307 -4.308115 9.386803 -8.590508 20.024834 4.814500 -4.387900 14.111800 -85.483898 5.691703 23.983953 16.365698 -22.930388 -3.779722 -1.044971 -1.911183 4.731143 -7.125000 0.000000 0.000000 85.569850 -2.852669 19.468764 -18.271377 26.375384 -4.341883 0.272033 -0.079782 6.309574 7.125000 0.000000 0.000000 
1.007000 18.013916 0.939972 -179.767830 -3.417308 179.977616 -18.190759 -12.778340 7.734136 -1.456182 -0.145735 1.811633 -0.353406 2.928372 0.767673 0.027100 1.062500 2.920900 20.631848 1.067610 -2.517597 -1.136726 -6.512756 19.804178 0.683810 -6.075872 -7.552674 -0.031000 1.137300 -3.126600 1.874130 0.542824 1.981462 -0.371887 0.154080 -4.365225 9.307042 -8.528243 20.028219 4.787100 -4.372500 14.077900 -85.523854 5.813435 24.065994 16.403270 -22.984706 -3.800782 -1.031285 -1.916028 4.618879 -7.125000 0.000000 0.000000 85.502534 -2.980678 19.466915 -18.285937 26.390925 -4.347661 0.272959 -0.079209 6.316496 7.125000 0.000000 0.000000 
1.001752 18.016292 0.936012 -179.715080 -3.523435 -179.998522 -18.174494 -13.062653 7.809741 -1.462238 -0.144993 1.803055 -0.365844 3.090168 0.748553 0.026300 1.046700 2.877300 20.674281 1.008173 -2.540177 -1.135688 -6.511152 19.799971 0.687687 -6.102893 -7.577311 -0.034700 1.202100 -3.305100 1.881603 0.525780 1.927962 -0.373689 0.146425 -4.437186 9.285148 -8.497021 20.062329 4.782600 -4.368300 14.063000 -85.527516 5.946336 24.144946 16.452157 -23.057125 -3.826338 -1.022592 -1.930529 4.517105 -7.125000 0.000000 0.000000 85.479509 -3.039972 19.423966 -18.230078 26.315480 -4.320932 0.270521 -0.079930 6.362324 7.125000 0.000000 0.000000 
0.997990 18.017381 0.932150 -179.732981 -3.630883 179.935543 -18.249642 -13.316894 7.988045 -1.467784 -0.144796 1.796199 -0.380527 3.278378 0.679538 0.035000 1.208400 3.322400 20.646568 0.955688 -2.438272 -1.132129 -6.505224 19.781715 0.697758 -6.173037 -7.632312 -0.030800 1.133400 -3.116000 1.870690 0.491747 1.953682 -0.359583 0.129181 -4.419064 9.340901 -8.496259 20.143225 4.808200 -4.364100 14.111700 -85.536534 5.927365 24.138915 16.455281 -23.060947 -3.826780 -1.025103 -1.938924 4.521950 -7.125000 0.000000 0.000000 85.493423 -2.942410 19.299105 -18.152126 26.211782 -4.283207 0.269857 -0.077974 6.504949 7.125000 0.000000 0.000000 
0.993337 18.013916 0.928883 -179.753228 -3.684380 179.916376 -18.319877 -13.527955 8.112652 -1.473247 -0.144826 1.790318 -0.394576 3.455481 0.590937 0.041600 1.315700 3.617900 20.618266 0.944197 -2.382211 -1.127197 -6.495873 19.751497 0.712462 -6.262481 -7.651389 -0.034600 1.200500 -3.300600 1.876795 0.439936 1.986902 -0.318222 0.103802 -4.354636 9.320768 -8.445189 20.132831 4.801100 -4.337000 14.107300 -85.586853 5.892974 23.972490 16.438001 -23.033632 -3.816539 -1.020284 -1.936607 4.676483 -7.125000 0.000000 0.000000 85.481303 -2.853435 19.233940 -18.110565 26.157124 -4.263423 0.268753 -0.075644 6.635831 7.125000 0.000000 0.000000 
0.987891 18.015005 0.925319 -179.720838 -3.697603 179.993786 -18.309211 -13.732405 8.123579 -1.478629 -0.144415 1.783184 -0.407247 3.610865 0.572541 0.034800 1.204500 3.311800 20.654855 1.032991 -2.435562 -1.123427 -6.500654 19.755649 0.791023 -6.715848 -7.635916 -0.037700 1.253300 -3.446000 1.876326 0.426297 1.968837 -0.321232 0.097523 -4.327849 9.319580 -8.408978 20.051741 4.798200 -4.316400 14.052400 -85.599834 5.958428 23.809785 16.453255 -23.056224 -3.824650 -1.010604 -1.923231 4.841486 -7.125000 0.000000 0.000000 85.509271 -2.847516 19.179295 -18.112198 26.160674 -4.265607 0.264297 -0.071334 6.771845 7.125000 0.000000 0.000000 
0.982050 18.019460 0.921062 -179.643931 -3.716956 -179.936657 -18.261197 -13.942596 8.143634 -1.484693 -0.142881 1.776461 -0.422254 3.794311 0.530014 0.028700 1.094600 3.009000 20.737508 1.084798 -2.500845 -1.118964 -6.510036 19.768464 0.924532 -7.471282 -7.575347 -0.033500 1.182200 -3.250300 1.896340 0.455043 1.980189 -0.326505 0.109449 -4.266337 9.346674 -8.443528 20.015602 4.810300 -4.326500 14.059100 -85.625116 5.885740 23.745018 16.446623 -23.044020 -3.820352 -1.017520 -1.914131 4.958001 -7.125000 0.000000 0.000000 85.470319 -2.761180 19.143107 -18.116521 26.168521 -4.268654 0.261060 -0.065482 6.723295 7.125000 0.000000 0.000000 
0.975218 18.019757 0.916309 -179.622433 -3.708707 -179.931829 -18.293835 -14.099385 8.233539 -1.489344 -0.142142 1.771839 -0.436206 3.963741 0.465702 0.030400 1.124800 3.092400 20.739018 1.056277 -2.497492 -1.116907 -6.513571 19.771895 0.982695 -7.797422 -7.546313 -0.029000 1.100000 -3.024000 1.903365 0.526058 2.036472 -0.339511 0.142522 -4.168817 9.320426 -8.517167 19.981087 4.784300 -4.349900 14.080100 -85.631232 5.717228 23.813835 16.407424 -22.984245 -3.799911 -1.027047 -1.911848 4.961549 -7.125000 0.000000 0.000000 85.405597 -2.681127 19.122249 -18.154020 26.222077 -4.286196 0.262675 -0.066413 6.565253 7.125000 0.000000 0.000000 
0.969872 18.022233 0.912745 -179.620087 -3.691918 -179.883901 -18.326699 -14.269062 8.252971 -1.494316 -0.142046 1.765473 -0.449259 4.119267 0.426066 0.028200 1.083400 2.978300 20.720158 1.070170 -2.523048 -1.114709 -6.509029 19.756947 0.983307 -7.802944 -7.555641 -0.029400 1.106800 -3.042700 1.891197 0.582259 2.051718 -0.358931 0.169519 -4.112089 9.379665 -8.532591 19.960023 4.801200 -4.340600 14.097100 -85.588629 5.705528 23.885354 16.423418 -23.008894 -3.808463 -1.005506 -1.935451 5.182539 -7.125000 0.000000 0.000000 85.382891 -2.673931 19.114778 -18.194845 26.280379 -4.306050 0.263207 -0.068727 6.479299 7.125000 0.000000 0.000000 
